<svg width="64" height="64" viewBox="0 0 64 64" fill="none" xmlns="http://www.w3.org/2000/svg">
<path d="M57 32C57 45.8071 45.8071 57 32 57C18.1929 57 7 45.8071 7 32C7 18.1929 18.1929 7 32 7C45.8071 7 57 18.1929 57 32Z" fill="#FF7777"/>
<path fill-rule="evenodd" clip-rule="evenodd" d="M32 7C18.7452 7 8 17.7452 8 31C8 44.2548 18.7452 55 32 55C45.2548 55 56 44.2548 56 31C56 26.6269 54.8313 22.5298 52.7898 19.0007C52.5133 18.5227 52.6767 17.9109 53.1547 17.6344C53.6328 17.3579 54.2445 17.5212 54.521 17.9993C56.7339 21.8245 58 26.2659 58 31C58 45.3594 46.3594 57 32 57C17.6406 57 6 45.3594 6 31C6 16.6406 17.6406 5 32 5C38.7334 5 44.871 7.56092 49.4883 11.7602C49.8968 12.1318 49.9268 12.7642 49.5552 13.1728C49.1836 13.5814 48.5512 13.6114 48.1426 13.2398C43.8791 9.36226 38.2166 7 32 7Z" fill="black"/>
<path fill-rule="evenodd" clip-rule="evenodd" d="M28.75 19.25C28.895 19.395 28.895 19.63 28.75 19.775L18.775 29.75C18.63 29.895 18.395 29.895 18.25 29.75V29.75C18.105 29.605 18.105 29.37 18.25 29.225L28.225 19.25C28.37 19.105 28.605 19.105 28.75 19.25V19.25Z" fill="white"/>
<path fill-rule="evenodd" clip-rule="evenodd" d="M18.25 19.25C18.395 19.105 18.63 19.105 18.775 19.25L28.75 29.225C28.895 29.37 28.895 29.605 28.75 29.75V29.75C28.605 29.895 28.37 29.895 28.225 29.75L18.25 19.775C18.105 19.63 18.105 19.395 18.25 19.25V19.25Z" fill="white"/>
<path fill-rule="evenodd" clip-rule="evenodd" d="M23.5 27.8534L20.1892 31.1642C19.2632 32.0902 17.7618 32.0902 16.8358 31.1642C15.9098 30.2382 15.9098 28.7368 16.8358 27.8108L20.1466 24.5L16.8358 21.1892C15.9098 20.2632 15.9098 18.7618 16.8358 17.8358C17.7618 16.9098 19.2632 16.9098 20.1892 17.8358L23.5 21.1466L26.8108 17.8358C27.7368 16.9098 29.2382 16.9098 30.1642 17.8358C31.0902 18.7618 31.0902 20.2632 30.1642 21.1892L26.8534 24.5L30.1642 27.8108C31.0902 28.7368 31.0902 30.2382 30.1642 31.1642C29.2382 32.0902 27.7368 32.0902 26.8108 31.1642L23.5 27.8534ZM28.225 29.75C28.37 29.895 28.605 29.895 28.75 29.75C28.895 29.605 28.895 29.37 28.75 29.225L24.025 24.5L28.75 19.775C28.895 19.63 28.895 19.395 28.75 19.25C28.605 19.105 28.37 19.105 28.225 19.25L23.5 23.975L18.775 19.25C18.63 19.105 18.395 19.105 18.25 19.25C18.105 19.395 18.105 19.63 18.25 19.775L22.975 24.5L18.25 29.225C18.105 29.37 18.105 29.605 18.25 29.75C18.395 29.895 18.63 29.895 18.775 29.75L23.5 25.025L28.225 29.75Z" fill="black"/>
<path fill-rule="evenodd" clip-rule="evenodd" d="M45.75 19.25C45.895 19.395 45.895 19.63 45.75 19.775L35.775 29.75C35.63 29.895 35.395 29.895 35.25 29.75V29.75C35.105 29.605 35.105 29.37 35.25 29.225L45.225 19.25C45.37 19.105 45.605 19.105 45.75 19.25V19.25Z" fill="white"/>
<path fill-rule="evenodd" clip-rule="evenodd" d="M35.25 19.25C35.395 19.105 35.63 19.105 35.775 19.25L45.75 29.225C45.895 29.37 45.895 29.605 45.75 29.75V29.75C45.605 29.895 45.37 29.895 45.225 29.75L35.25 19.775C35.105 19.63 35.105 19.395 35.25 19.25V19.25Z" fill="white"/>
<path fill-rule="evenodd" clip-rule="evenodd" d="M40.5 27.8534L37.1892 31.1642C36.2632 32.0902 34.7618 32.0902 33.8358 31.1642C32.9098 30.2382 32.9098 28.7368 33.8358 27.8108L37.1466 24.5L33.8358 21.1892C32.9098 20.2632 32.9098 18.7618 33.8358 17.8358C34.7618 16.9098 36.2632 16.9098 37.1892 17.8358L40.5 21.1466L43.8108 17.8358C44.7368 16.9098 46.2382 16.9098 47.1642 17.8358C48.0902 18.7618 48.0902 20.2632 47.1642 21.1892L43.8534 24.5L47.1642 27.8108C48.0902 28.7368 48.0902 30.2382 47.1642 31.1642C46.2382 32.0902 44.7368 32.0902 43.8108 31.1642L40.5 27.8534ZM45.225 29.75C45.37 29.895 45.605 29.895 45.75 29.75C45.895 29.605 45.895 29.37 45.75 29.225L41.025 24.5L45.75 19.775C45.895 19.63 45.895 19.395 45.75 19.25C45.605 19.105 45.37 19.105 45.225 19.25L40.5 23.975L35.775 19.25C35.63 19.105 35.395 19.105 35.25 19.25C35.105 19.395 35.105 19.63 35.25 19.775L39.975 24.5L35.25 29.225C35.105 29.37 35.105 29.605 35.25 29.75C35.395 29.895 35.63 29.895 35.775 29.75L40.5 25.025L45.225 29.75Z" fill="black"/>
<path fill-rule="evenodd" clip-rule="evenodd" d="M31.5 39C28.4624 39 26 41.4624 26 44.5H24C24 40.3579 27.3579 37 31.5 37H32.5C36.6421 37 40 40.3579 40 44.5H38C38 41.4624 35.5376 39 32.5 39H31.5Z" fill="black"/>
</svg>
